# xmcd
#
# Track frame offsets:
#	150
#	13256
#	26852
#	40343
#	54016
#	67607
#	80829
#	93959
#	107582
#	121306
#	134797
#	148318
#	166468
#	179941
#	193213
#	206827
#	220469
#	234114
#	247670
#	261090
#	274613
#	291732
#
# Disc length: 4149 seconds
#
# Revision: 0
# Processed by: cddbd v1.5.2PL0 Copyright (c) Steve Scherf et al.
# Submitted via: EasyCDDAExtractor 2010.6.0.0
#
DISCID=57103316
DTITLE=Various Artist - Grand Prix Clubhits Cd 1
DYEAR=2012
DGENRE=Pop
TTITLE0=Jedward - Lipstick
TTITLE1=Eric Saade - Popular
TTITLE2=Soraya - La Noche Es Para Mi
TTITLE3=Hadise - Düm Tek Tek
TTITLE4=Elena Risteska - Ninanajna
TTITLE5=Sakis Rouvas - This Is Our Night
TTITLE6=Charlotte Perrelli - Hero
TTITLE7=Lou - Let's Get Happy
TTITLE8=Charmed - My Heart Goes Boom
TTITLE9=Esther Hart - One More Night
TTITLE10=Fame - Give Me Your Love
TTITLE11=Kate Ryan - Je T'adore
TTITLE12=Sarbel - Yassou Maria
TTITLE13=Aysel and Arash - Always
TTITLE14=Beth - Dime
TTITLE15=Charlotte Nilsson - Take Me To Your Heaven
TTITLE16=Kati Wolf - What About My Dreams
TTITLE17=Euroband - This Is My Life
TTITLE18=Waldo's People - Lose Control
TTITLE19=Texas Lightning - No No Never
TTITLE20=Madcon - Glow
TTITLE21=Stefan Raab and Lena - Satellite (Rockabilly Version)
EXTD=
EXTT0=
EXTT1=
EXTT2=
EXTT3=
EXTT4=
EXTT5=
EXTT6=
EXTT7=
EXTT8=
EXTT9=
EXTT10=
EXTT11=
EXTT12=
EXTT13=
EXTT14=
EXTT15=
EXTT16=
EXTT17=
EXTT18=
EXTT19=
EXTT20=
EXTT21=
PLAYORDER=
